<svg width="24" height="24" viewBox="0 0 24 24" fill="none" xmlns="http://www.w3.org/2000/svg">
<g clip-path="url(#clip0_611_5872)">
<path d="M7.49258 19.7916C9.38308 20.8857 11.607 21.255 13.7496 20.8305C15.8923 20.4061 17.8075 19.2169 19.1381 17.4847C20.4687 15.7525 21.124 13.5955 20.9817 11.4158C20.8394 9.23617 19.9093 7.18265 18.3648 5.63813C16.8202 4.0936 14.7667 3.16349 12.5871 3.0212C10.4074 2.87892 8.2504 3.53417 6.51819 4.8648C4.78597 6.19543 3.59679 8.1106 3.17235 10.2533C2.74792 12.3959 3.11719 14.6198 4.21133 16.5103L3.03852 20.0119C2.99445 20.144 2.98806 20.2858 3.02005 20.4214C3.05205 20.557 3.12117 20.681 3.21967 20.7795C3.31817 20.878 3.44216 20.9471 3.57774 20.9791C3.71331 21.0111 3.85512 21.0047 3.98727 20.9606L7.49258 19.7916Z" stroke="#504E4F" stroke-linecap="round" stroke-linejoin="round"/>
</g>
<defs>
<clipPath id="clip0_611_5872">
<rect width="24" height="24" fill="white"/>
</clipPath>
</defs>
</svg>
