<svg width="26" height="26" viewBox="0 0 26 26" fill="none" xmlns="http://www.w3.org/2000/svg">
<path d="M26 13C26.0005 15.2444 25.4199 17.4507 24.3147 19.4042C23.2095 21.3576 21.6174 22.9917 19.6934 24.1473C17.7693 25.3029 15.5788 25.9406 13.3352 25.9985C11.0915 26.0564 8.87107 25.5324 6.89 24.4775L2.63375 25.8962C2.28136 26.0138 1.9032 26.0308 1.54166 25.9455C1.18012 25.8602 0.849484 25.6758 0.586814 25.4132C0.324144 25.1505 0.139818 24.8199 0.0544969 24.4583C-0.0308244 24.0968 -0.0137696 23.7186 0.10375 23.3662L1.5225 19.11C0.595185 17.3665 0.0772463 15.4347 0.00799667 13.4612C-0.061253 11.4877 0.320007 9.52433 1.12284 7.72016C1.92567 5.91599 3.12897 4.31843 4.6414 3.04873C6.15383 1.77904 7.93564 0.870589 9.85158 0.392337C11.7675 -0.0859153 13.7672 -0.121399 15.699 0.288579C17.6307 0.698556 19.4436 1.54322 21.0001 2.75846C22.5566 3.97369 23.8158 5.52756 24.6822 7.30211C25.5485 9.07666 25.9992 11.0253 26 13Z" fill="#B1AFB0"/>
</svg>
