<svg width="24" height="24" viewBox="0 0 24 24" fill="none" xmlns="http://www.w3.org/2000/svg">
<g clip-path="url(#clip0_611_5860)">
<path d="M15.75 0.75V2.25" stroke="#504E4F" stroke-linecap="round" stroke-linejoin="round"/>
<path d="M19.5 1.97064L18.75 3.1997" stroke="#504E4F" stroke-linecap="round" stroke-linejoin="round"/>
<path d="M22.0936 5.25L20.6836 5.70469" stroke="#504E4F" stroke-linecap="round" stroke-linejoin="round"/>
<path d="M7.83091 9.28126L7.29372 8.34376C7.06995 7.95613 6.70135 7.67327 6.26902 7.55741C5.83669 7.44154 5.37604 7.50217 4.98841 7.72595C4.60078 7.94972 4.31792 8.31832 4.20206 8.75065C4.0862 9.18298 4.14682 9.64363 4.3706 10.0313L6.15185 13.1166" stroke="#504E4F" stroke-linecap="round" stroke-linejoin="round"/>
<path d="M10.2691 13.5L7.83164 9.28123C7.716 9.08916 7.6398 8.87597 7.60747 8.65412C7.57515 8.43226 7.58736 8.20619 7.64339 7.98911C7.69942 7.77203 7.79814 7.56829 7.93379 7.38979C8.06944 7.21129 8.23931 7.06161 8.43345 6.94949C8.6276 6.83737 8.84215 6.76507 9.06455 6.7368C9.28696 6.70853 9.51277 6.72486 9.72879 6.78484C9.94482 6.84481 10.1467 6.94724 10.3227 7.08612C10.4987 7.22501 10.6453 7.39757 10.7538 7.59373L14.171 13.5" stroke="#504E4F" stroke-linecap="round" stroke-linejoin="round"/>
<path d="M9.56434 5.53125L9.02809 4.59375C8.91729 4.40182 8.76977 4.23359 8.59395 4.09866C8.41813 3.96374 8.21746 3.86477 8.00339 3.8074C7.78932 3.75003 7.56605 3.73539 7.34632 3.76431C7.1266 3.79322 6.91472 3.86514 6.72278 3.97594C6.53085 4.08674 6.36262 4.23427 6.22769 4.41008C6.09277 4.5859 5.9938 4.78658 5.93643 5.00064C5.87906 5.21471 5.86442 5.43798 5.89333 5.65771C5.92225 5.87744 5.99417 6.08932 6.10497 6.28125L7.29653 8.34375" stroke="#504E4F" stroke-linecap="round" stroke-linejoin="round"/>
<path d="M10.7537 7.59373L9.56211 5.53123C9.44647 5.33916 9.37026 5.12597 9.33794 4.90412C9.30562 4.68226 9.31783 4.45619 9.37386 4.23911C9.42988 4.02203 9.52861 3.81829 9.66426 3.63979C9.79991 3.46129 9.96977 3.31161 10.1639 3.19949C10.3581 3.08737 10.5726 3.01507 10.795 2.9868C11.0174 2.95853 11.2432 2.97486 11.4593 3.03484C11.6753 3.09481 11.8772 3.19724 12.0532 3.33612C12.2292 3.47501 12.3757 3.64757 12.4843 3.84373L15.953 9.84373" stroke="#504E4F" stroke-linecap="round" stroke-linejoin="round"/>
<path d="M18.6545 17.6025C19.6785 16.5485 20.3306 15.189 20.5116 13.7306C20.6927 12.2723 20.3928 10.7946 19.6576 9.52219L17.6804 6.09376C17.5696 5.90182 17.4221 5.73359 17.2463 5.59867C17.0705 5.46375 16.8698 5.36477 16.6557 5.30741C16.2234 5.19154 15.7628 5.25217 15.3751 5.47594C14.9875 5.69972 14.7046 6.06832 14.5888 6.50065C14.4729 6.93298 14.5335 7.39363 14.7573 7.78126" stroke="#504E4F" stroke-linecap="round" stroke-linejoin="round"/>
<path d="M7.66982 15.75L5.77419 12.4688C5.55042 12.0811 5.18182 11.7983 4.74949 11.6824C4.31716 11.5666 3.85651 11.6272 3.46888 11.851C3.08125 12.0747 2.79839 12.4433 2.68253 12.8757C2.56667 13.308 2.62729 13.7686 2.85107 14.1563L3.75013 15.7116L6.15294 19.875C7.04805 21.4254 8.52239 22.5567 10.2516 23.0201C11.9808 23.4835 13.8233 23.2409 15.3737 22.3458C16.9241 21.4507 18.0554 19.9764 18.5188 18.2471C18.9822 16.5179 18.7396 14.6754 17.8445 13.125L15.9508 9.84378C15.8453 9.64211 15.7001 9.46387 15.5239 9.31978C15.3477 9.17568 15.1442 9.06871 14.9257 9.0053C14.7071 8.94189 14.4779 8.92335 14.252 8.95079C14.0261 8.97823 13.808 9.0511 13.611 9.16499C13.4139 9.27889 13.242 9.43147 13.1054 9.61355C12.9689 9.79563 12.8706 10.0034 12.8164 10.2245C12.7623 10.4456 12.7534 10.6753 12.7904 10.8999C12.8273 11.1244 12.9093 11.3392 13.0314 11.5313" stroke="#504E4F" stroke-linecap="round" stroke-linejoin="round"/>
</g>
<defs>
<clipPath id="clip0_611_5860">
<rect width="24" height="24" fill="white"/>
</clipPath>
</defs>
</svg>
