<svg width="29" height="32" viewBox="0 0 29 32" fill="none" xmlns="http://www.w3.org/2000/svg">
<path d="M21.6091 8.125C21.3107 7.607 20.8188 7.22874 20.2416 7.07344C19.6643 6.91813 19.049 6.99851 18.531 7.29688C18.013 7.59524 17.6347 8.08717 17.4794 8.66443C17.3241 9.24169 17.4045 9.857 17.7029 10.375L14.6704 5.125C14.372 4.6075 13.8803 4.22971 13.3034 4.07476C12.7264 3.91981 12.1116 4.00038 11.5941 4.29875C11.0766 4.59712 10.6988 5.08884 10.5439 5.66575C10.3889 6.24266 10.4695 6.8575 10.7679 7.375L10.0504 6.125C9.75199 5.6075 9.26027 5.22971 8.68336 5.07476C8.10645 4.91981 7.49162 5.00038 6.97411 5.29875C6.45661 5.59712 6.07883 6.08884 5.92387 6.66575C5.76892 7.24266 5.84949 7.8575 6.14786 8.375L6.56536 9.09625C5.94655 8.94273 5.29624 8.97462 4.69542 9.18794C4.09459 9.40126 3.56978 9.78659 3.18632 10.296C2.80286 10.8053 2.57769 11.4162 2.53884 12.0526C2.5 12.689 2.6492 13.3228 2.96786 13.875L3.34286 14.525C2.81129 14.5924 2.30463 14.7903 1.86801 15.1009C1.43138 15.4115 1.07833 15.8253 0.840278 16.3053C0.602229 16.7854 0.486569 17.3168 0.503594 17.8524C0.52062 18.388 0.669802 18.911 0.937862 19.375L5.34661 27C6.44713 28.9038 8.14349 30.3926 10.174 31.2367C12.2045 32.0808 14.4564 32.2333 16.5822 31.6707C18.708 31.1081 20.5896 29.8617 21.9368 28.1237C23.284 26.3857 24.0219 24.2527 24.0366 22.0537C24.9278 20.6642 25.4193 19.056 25.457 17.4056C25.4947 15.7552 25.0772 14.1263 24.2504 12.6975L21.6091 8.125ZM21.7591 24.07C21.3475 25.5995 20.4919 26.9727 19.3004 28.0162C18.1088 29.0598 16.6349 29.727 15.0645 29.9335C13.4941 30.14 11.8977 29.8765 10.477 29.1765C9.05618 28.4764 7.87467 27.3711 7.08161 26L2.67286 18.375C2.59079 18.2327 2.53755 18.0756 2.51618 17.9127C2.49482 17.7498 2.50574 17.5843 2.54834 17.4256C2.59094 17.2669 2.66438 17.1182 2.76445 16.9879C2.86453 16.8576 2.98929 16.7483 3.13161 16.6663C3.41904 16.5005 3.76054 16.4557 4.081 16.5417C4.23967 16.5843 4.3884 16.6578 4.51869 16.7578C4.64898 16.8579 4.75829 16.9827 4.84036 17.125L7.37536 21.5C7.50797 21.7299 7.72648 21.8977 7.98282 21.9665C8.23916 22.0353 8.51233 21.9995 8.74224 21.8669C8.97215 21.7343 9.13996 21.5158 9.20876 21.2594C9.27757 21.0031 9.24172 20.7299 9.10911 20.5L4.70286 12.875C4.5371 12.5869 4.49257 12.2448 4.57907 11.9238C4.66558 11.6029 4.87602 11.3295 5.16411 11.1637C5.4522 10.998 5.79434 10.9535 6.11526 11.04C6.43619 11.1265 6.7096 11.3369 6.87536 11.625L10.8516 18.5C10.9842 18.7299 11.2027 18.8977 11.4591 18.9665C11.7154 19.0353 11.9886 18.9995 12.2185 18.8669C12.4484 18.7343 12.6162 18.5158 12.685 18.2594C12.7538 18.0031 12.718 17.7299 12.5854 17.5L9.33536 11.875C9.1696 11.5874 9.12488 11.2457 9.21103 10.9252C9.29718 10.6046 9.50714 10.3314 9.79474 10.1656C10.0823 9.99986 10.424 9.95514 10.7446 10.0413C11.0651 10.1274 11.3384 10.3374 11.5041 10.625L16.0666 18.5C16.1992 18.7299 16.4177 18.8977 16.6741 18.9665C16.9304 19.0353 17.2036 18.9995 17.4335 18.8669C17.6634 18.7343 17.8312 18.5158 17.9 18.2594C17.9688 18.0031 17.933 17.7299 17.8004 17.5L16.2254 14.7812C16.1061 14.493 16.0988 14.1706 16.2051 13.8773C16.3114 13.584 16.5236 13.341 16.7998 13.1962C17.0761 13.0513 17.3966 13.0149 17.6983 13.0943C18 13.1736 18.2611 13.3629 18.4304 13.625L20.9579 18C21.4867 18.9085 21.8298 19.9131 21.9674 20.9553C22.1049 21.9975 22.0341 23.0566 21.7591 24.0713V24.07ZM18.0279 3V1C18.0279 0.734784 18.1332 0.48043 18.3208 0.292893C18.5083 0.105357 18.7626 0 19.0279 0C19.2931 0 19.5474 0.105357 19.735 0.292893C19.9225 0.48043 20.0279 0.734784 20.0279 1V3C20.0279 3.26522 19.9225 3.51957 19.735 3.70711C19.5474 3.89464 19.2931 4 19.0279 4C18.7626 4 18.5083 3.89464 18.3208 3.70711C18.1332 3.51957 18.0279 3.26522 18.0279 3ZM22.1804 3.75L23.1804 2.1125C23.2487 2.00022 23.3385 1.90251 23.4447 1.82494C23.5508 1.74737 23.6712 1.69146 23.7989 1.66041C23.9267 1.62936 24.0593 1.62378 24.1892 1.64397C24.3191 1.66417 24.4437 1.70976 24.556 1.77813C24.6683 1.84649 24.766 1.93631 24.8436 2.04244C24.9211 2.14858 24.977 2.26895 25.0081 2.39669C25.0391 2.52442 25.0447 2.65703 25.0245 2.78693C25.0043 2.91682 24.9587 3.04147 24.8904 3.15375L23.8904 4.7925C23.8009 4.93896 23.6753 5.05993 23.5255 5.14378C23.3758 5.22763 23.207 5.27152 23.0354 5.27125C22.8576 5.27153 22.683 5.22442 22.5295 5.13478C22.3759 5.04513 22.2491 4.91618 22.162 4.76121C22.0749 4.60624 22.0307 4.43085 22.0339 4.25311C22.0372 4.07537 22.0877 3.90171 22.1804 3.75ZM27.8054 7.9575L25.9241 8.56375C25.8247 8.59566 25.721 8.6121 25.6166 8.6125C25.3778 8.61321 25.1467 8.52847 24.965 8.37359C24.7833 8.21872 24.663 8.00393 24.6258 7.76808C24.5887 7.53222 24.6371 7.29085 24.7625 7.08762C24.8878 6.88439 25.0817 6.73271 25.3091 6.66L27.1916 6.05375C27.4441 5.97236 27.7185 5.99459 27.9546 6.11555C28.1906 6.23652 28.369 6.4463 28.4504 6.69875C28.5318 6.9512 28.5095 7.22565 28.3886 7.46171C28.2676 7.69777 28.0578 7.87611 27.8054 7.9575Z" fill="#B1AFB0"/>
</svg>
